<svg width="20" height="19" viewBox="0 0 20 19" fill="none" xmlns="http://www.w3.org/2000/svg">
<path d="M6.25 17.5382C6.94036 17.5382 7.5 17.0216 7.5 16.3843C7.5 15.7471 6.94036 15.2305 6.25 15.2305C5.55964 15.2305 5 15.7471 5 16.3843C5 17.0216 5.55964 17.5382 6.25 17.5382Z" fill="#1E1E1E"/>
<path d="M15 17.5382C15.6904 17.5382 16.25 17.0216 16.25 16.3843C16.25 15.7471 15.6904 15.2305 15 15.2305C14.3096 15.2305 13.75 15.7471 13.75 16.3843C13.75 17.0216 14.3096 17.5382 15 17.5382Z" fill="#1E1E1E"/>
<path d="M17.5 4.26852H3.6375L3.125 1.84544C3.09578 1.71317 3.01724 1.59454 2.90304 1.51021C2.78884 1.42588 2.64622 1.38118 2.5 1.38391H0V2.53775H1.9875L4.375 13.6147C4.40422 13.747 4.48276 13.8656 4.59696 13.9499C4.71116 14.0342 4.85378 14.0789 5 14.0762H16.25V12.9224H5.5125L5 10.6147H16.25C16.3945 10.6179 16.5357 10.5749 16.6497 10.4928C16.7636 10.4108 16.8432 10.2948 16.875 10.1647L18.125 4.97237C18.1459 4.88677 18.1455 4.79788 18.1236 4.71248C18.1017 4.62708 18.059 4.54741 17.9987 4.47954C17.9385 4.41167 17.8622 4.35739 17.7758 4.32082C17.6894 4.28425 17.595 4.26637 17.5 4.26852ZM15.75 9.46083H4.7625L3.8875 5.42237H16.7188L15.75 9.46083Z" fill="#1E1E1E"/>
</svg>
